<svg id="Group_1865" data-name="Group 1865" xmlns="http://www.w3.org/2000/svg" viewBox="0 0 20.53 21.996">
  <defs>
    <style>
      .cls-1 {
        fill: #5c6670;
      }
    </style>
  </defs>
  <path id="Path_120" data-name="Path 120" class="cls-1" d="M20.163,1.466H17.6V.367A.346.346,0,0,0,17.231,0H14.664A.346.346,0,0,0,14.3.367v1.1H6.232V.367A.346.346,0,0,0,5.866,0H3.3a.346.346,0,0,0-.367.367v1.1H.367A.346.346,0,0,0,0,1.833v19.8A.346.346,0,0,0,.367,22h19.8a.346.346,0,0,0,.367-.367V1.833A.346.346,0,0,0,20.163,1.466ZM15.031.733h1.833v2.2H15.031V.733ZM3.666.733H5.5v2.2H3.666V.733ZM.733,2.2h2.2V3.3a.346.346,0,0,0,.367.367H5.866A.346.346,0,0,0,6.232,3.3V2.2H14.3V3.3a.346.346,0,0,0,.367.367h2.566A.346.346,0,0,0,17.6,3.3V2.2h2.2V5.5H.733Zm0,19.064V6.232H19.8V21.263Z" transform="translate(0)"/>
  <path id="Path_121" data-name="Path 121" class="cls-1" d="M18.9,23H9V33.632H22.931V23H18.9Zm-2.566.733H18.9V26.3H16.332ZM18.9,29.6H16.332V27.033H18.9Zm-5.866-2.566H15.6V29.6H13.033Zm0-3.3H15.6V26.3H13.033Zm-3.3,0H12.3V26.3H9.733Zm0,3.3H12.3V29.6H9.733ZM12.3,32.9H9.733V30.332H12.3Zm3.3,0H13.033V30.332H15.6Zm3.3,0H16.332V30.332H18.9Zm3.3,0H19.632V30.332H22.2Zm0-3.3H19.632V27.033H22.2Zm0-5.866V26.3H19.632V23.733Z" transform="translate(-5.701 -14.568)"/>
</svg>
