<svg id="Group_3188" data-name="Group 3188" xmlns="http://www.w3.org/2000/svg" viewBox="0 0 16.238 12.369">
  <defs>
    <style>
      .cls-1 {
        fill: #5c6670;
      }
    </style>
  </defs>
  <g id="Group_101" data-name="Group 101">
    <path id="Path_112" data-name="Path 112" class="cls-1" d="M14.811,0H1.427A1.429,1.429,0,0,0,0,1.427v9.515a1.429,1.429,0,0,0,1.427,1.427H14.811a1.429,1.429,0,0,0,1.427-1.427V1.427A1.429,1.429,0,0,0,14.811,0Zm-.2.951L8.151,7.415,1.63.951ZM.951,10.745V1.621L5.534,6.162Zm.672.672L6.21,6.831,7.818,8.424a.479.479,0,0,0,.672,0l1.567-1.567,4.557,4.561Zm13.663-.672L10.726,6.184l4.561-4.561Z"/>
  </g>
</svg>
