<svg xmlns="http://www.w3.org/2000/svg" viewBox="0 0 11.871 14.879">
  <defs>
    <style>
      .cls-1 {
        fill: #5c6670;
      }
    </style>
  </defs>
  <g id="Group_2945" data-name="Group 2945" transform="translate(0.026 0.024)">
    <g id="Group_8" data-name="Group 8" transform="translate(-0.026 -0.024)">
      <path id="Path_6" data-name="Path 6" class="cls-1" d="M5.7-.02A5.938,5.938,0,0,0,.082,7.039h0s.009.064.04.186A5.949,5.949,0,0,0,.521,8.4a17.191,17.191,0,0,0,5.058,6.333.516.516,0,0,0,.659,0A17.174,17.174,0,0,0,11.3,8.4a5.7,5.7,0,0,0,.4-1.178c.027-.119.04-.186.04-.186h0A5.939,5.939,0,0,0,5.7-.02Zm.21,8.884A2.883,2.883,0,1,1,8.791,5.98,2.883,2.883,0,0,1,5.908,8.863Z" transform="translate(0.026 0.024)"/>
    </g>
  </g>
</svg>
