<svg xmlns="http://www.w3.org/2000/svg" viewBox="0 0 24.696 28.361">
  <defs>
    <style>
      .cls-1 {
        fill: #5c6670;
      }
    </style>
  </defs>
  <g id="Group_2860" data-name="Group 2860" transform="translate(0.311)">
    <g id="Group_176" data-name="Group 176" transform="translate(-0.311 0)">
      <g id="Group_175" data-name="Group 175" transform="translate(0 0)">
        <path id="Path_133" data-name="Path 133" class="cls-1" d="M24.157,20.641h0a2.135,2.135,0,0,1-.781-2.913,3.044,3.044,0,0,0-.366-3.55,3.081,3.081,0,0,0,.366-3.556,2.114,2.114,0,0,1-.21-1.617,2.14,2.14,0,0,1,.991-1.3.458.458,0,0,0-.46-.792h0a2.135,2.135,0,0,1-2.913-.781,3.035,3.035,0,0,0-1.85-1.418,2.974,2.974,0,0,0-1.412-.039,3.071,3.071,0,0,0-2.9-2.093,2.111,2.111,0,0,1-1.506-.626A2.121,2.121,0,0,1,12.494.454.454.454,0,0,0,12.034,0a.462.462,0,0,0-.46.46,2.111,2.111,0,0,1-.626,1.506,2.111,2.111,0,0,1-1.506.626h0a3.024,3.024,0,0,0-2.154.892,3.061,3.061,0,0,0-.742,1.2A3.074,3.074,0,0,0,3.284,6.147a2.131,2.131,0,0,1-2.908.781h0a.461.461,0,0,0-.626.166.461.461,0,0,0,.166.626h0a2.11,2.11,0,0,1,.991,1.3A2.117,2.117,0,0,1,.7,10.633a3.044,3.044,0,0,0,.366,3.55A3.081,3.081,0,0,0,.7,17.739a2.117,2.117,0,0,1,.21,1.617,2.161,2.161,0,0,1-.991,1.3.458.458,0,1,0,.46.792h0a2.117,2.117,0,0,1,1.617-.21,2.14,2.14,0,0,1,1.3.991,3.02,3.02,0,0,0,1.85,1.418,2.986,2.986,0,0,0,1.412.039,3.076,3.076,0,0,0,2.9,2.093,2.137,2.137,0,0,1,2.132,2.132.454.454,0,0,0,.46.454.459.459,0,0,0,.46-.46,2.137,2.137,0,0,1,2.132-2.132,3.024,3.024,0,0,0,2.154-.892,3.061,3.061,0,0,0,.742-1.2,3.074,3.074,0,0,0,3.262-1.462,2.131,2.131,0,0,1,2.908-.781.458.458,0,1,0,.46-.792Zm-1.573-9.565a2.145,2.145,0,0,1-.277,2.514l-.044-.028L19.35,11.88a5.609,5.609,0,0,0-1.418-.576L22.28,8.795A2.985,2.985,0,0,0,22.584,11.077ZM17.683,9V5.588A2.051,2.051,0,0,1,18.7,5.61,2.14,2.14,0,0,1,20,6.6,3.021,3.021,0,0,0,21.82,8.008l-4.348,2.509A5.607,5.607,0,0,0,17.683,9ZM12.5,2.631a3.018,3.018,0,0,0,2.127.87A2.144,2.144,0,0,1,16.67,5c-.017.006-.028.017-.044.022L13.712,6.707a5.573,5.573,0,0,0-1.207.942V2.631Zm-.061,6.6A4.7,4.7,0,0,1,14.172,7.5l2.6-1.5V9a4.691,4.691,0,0,1-.631,2.359.457.457,0,0,0-.055.144,4.85,4.85,0,0,0-3.738-2.16A.5.5,0,0,0,12.444,9.227Zm-4.5-5.1A2.111,2.111,0,0,1,9.453,3.5h0a3.031,3.031,0,0,0,2.132-.87V7.648a5.853,5.853,0,0,0-1.207-.942L7.465,5.023A.309.309,0,0,1,7.421,5,2.175,2.175,0,0,1,7.947,4.126ZM7.327,6l2.6,1.5a4.7,4.7,0,0,1,1.728,1.728.5.5,0,0,0,.1.116A4.851,4.851,0,0,0,8.008,11.5a.547.547,0,0,0-.055-.15,4.691,4.691,0,0,1-.631-2.359Zm-3.234.6A2.149,2.149,0,0,1,6.407,5.583V8.994a5.828,5.828,0,0,0,.2,1.517L2.27,8A2.994,2.994,0,0,0,4.092,6.6Zm-2.586,4.48A3.018,3.018,0,0,0,1.816,8.8l4.348,2.509a5.733,5.733,0,0,0-1.418.576L1.833,13.569l-.044.028a2.142,2.142,0,0,1-.282-2.514Zm.31,8.474a3.026,3.026,0,0,0-.31-2.276,2.145,2.145,0,0,1,.277-2.514l.044.028,2.919,1.678a5.609,5.609,0,0,0,1.418.576Zm4.6-.2v3.412a2.051,2.051,0,0,1-1.019-.022,2.14,2.14,0,0,1-1.3-.991,3.027,3.027,0,0,0-1.822-1.412l4.342-2.509A5.672,5.672,0,0,0,6.413,19.356ZM5.2,15.679l-2.6-1.5,2.6-1.5a4.716,4.716,0,0,1,2.354-.631h.006a.48.48,0,0,0,.155-.028,4.833,4.833,0,0,0,0,4.32.481.481,0,0,0-.155-.028H7.554A4.774,4.774,0,0,1,5.2,15.679Zm6.391,10.046a3.018,3.018,0,0,0-2.127-.87,2.144,2.144,0,0,1-2.038-1.5c.017-.006.028-.017.044-.022l2.913-1.684a5.573,5.573,0,0,0,1.207-.942Zm.061-6.6a4.7,4.7,0,0,1-1.728,1.728l-2.6,1.5v-3A4.691,4.691,0,0,1,7.958,17a.457.457,0,0,0,.055-.144,4.841,4.841,0,0,0,3.738,2.16A.4.4,0,0,0,11.652,19.129ZM8.118,14.178A3.927,3.927,0,1,1,12.045,18.1,3.931,3.931,0,0,1,8.118,14.178ZM16.143,24.23a2.111,2.111,0,0,1-1.506.626h0a3.019,3.019,0,0,0-2.132.875V20.713a5.853,5.853,0,0,0,1.207.942l2.913,1.684a.166.166,0,0,0,.044.022A2.115,2.115,0,0,1,16.143,24.23Zm-1.972-3.373a4.7,4.7,0,0,1-1.728-1.728.5.5,0,0,0-.1-.116,4.832,4.832,0,0,0,3.738-2.16.547.547,0,0,0,.055.15,4.691,4.691,0,0,1,.631,2.359v3Zm2.365-4.547h0a.455.455,0,0,0-.155.028,4.833,4.833,0,0,0,0-4.32.475.475,0,0,0,.15.028h.006a4.743,4.743,0,0,1,2.354.631l2.6,1.5-2.6,1.5A4.686,4.686,0,0,1,16.537,16.31ZM20,21.754a2.154,2.154,0,0,1-2.321,1.019V19.356a5.828,5.828,0,0,0-.2-1.517l4.342,2.509A3.043,3.043,0,0,0,20,21.754Zm2.586-4.48a3.026,3.026,0,0,0-.31,2.282l-4.348-2.509a5.733,5.733,0,0,0,1.418-.576l2.913-1.684.044-.028a2.14,2.14,0,0,1,.493.892A2.1,2.1,0,0,1,22.584,17.274Z" transform="translate(0.311 0)"/>
      </g>
    </g>
    <g id="Group_178" data-name="Group 178" transform="translate(9.248 11.381)">
      <g id="Group_177" data-name="Group 177">
        <path id="Path_134" data-name="Path 134" class="cls-1" d="M175.1,205.5a2.8,2.8,0,1,0,2.8,2.8A2.8,2.8,0,0,0,175.1,205.5Zm0,4.68a1.883,1.883,0,1,1,1.883-1.883A1.885,1.885,0,0,1,175.1,210.18Z" transform="translate(-172.3 -205.5)"/>
      </g>
    </g>
    <g id="Group_180" data-name="Group 180" transform="translate(18.685 20.359)">
      <g id="Group_179" data-name="Group 179">
        <circle id="Ellipse_7" data-name="Ellipse 7" class="cls-1" cx="0.46" cy="0.46" r="0.46"/>
      </g>
    </g>
    <g id="Group_182" data-name="Group 182" transform="translate(14.692 19.295)">
      <g id="Group_181" data-name="Group 181">
        <circle id="Ellipse_8" data-name="Ellipse 8" class="cls-1" cx="0.46" cy="0.46" r="0.46"/>
      </g>
    </g>
    <g id="Group_184" data-name="Group 184" transform="translate(13.862 22.895)">
      <g id="Group_183" data-name="Group 183">
        <circle id="Ellipse_9" data-name="Ellipse 9" class="cls-1" cx="0.46" cy="0.46" r="0.46"/>
      </g>
    </g>
    <g id="Group_186" data-name="Group 186" transform="translate(9.309 23.172)">
      <g id="Group_185" data-name="Group 185">
        <circle id="Ellipse_10" data-name="Ellipse 10" class="cls-1" cx="0.46" cy="0.46" r="0.46"/>
      </g>
    </g>
    <g id="Group_188" data-name="Group 188" transform="translate(8.478 19.295)">
      <g id="Group_187" data-name="Group 187">
        <circle id="Ellipse_11" data-name="Ellipse 11" class="cls-1" cx="0.46" cy="0.46" r="0.46"/>
      </g>
    </g>
    <g id="Group_190" data-name="Group 190" transform="translate(4.856 20.364)">
      <g id="Group_189" data-name="Group 189">
        <circle id="Ellipse_12" data-name="Ellipse 12" class="cls-1" cx="0.46" cy="0.46" r="0.46"/>
      </g>
    </g>
    <g id="Group_192" data-name="Group 192" transform="translate(2.298 16.587)">
      <g id="Group_191" data-name="Group 191">
        <circle id="Ellipse_13" data-name="Ellipse 13" class="cls-1" cx="0.46" cy="0.46" r="0.46"/>
      </g>
    </g>
    <g id="Group_194" data-name="Group 194" transform="translate(5.205 13.785)">
      <g id="Group_193" data-name="Group 193">
        <circle id="Ellipse_14" data-name="Ellipse 14" class="cls-1" cx="0.46" cy="0.46" r="0.46"/>
      </g>
    </g>
    <g id="Group_196" data-name="Group 196" transform="translate(2.481 11.171)">
      <g id="Group_195" data-name="Group 195">
        <circle id="Ellipse_15" data-name="Ellipse 15" class="cls-1" cx="0.46" cy="0.46" r="0.46"/>
      </g>
    </g>
    <g id="Group_198" data-name="Group 198" transform="translate(4.485 7.078)">
      <g id="Group_197" data-name="Group 197">
        <circle id="Ellipse_16" data-name="Ellipse 16" class="cls-1" cx="0.46" cy="0.46" r="0.46"/>
      </g>
    </g>
    <g id="Group_200" data-name="Group 200" transform="translate(8.478 8.147)">
      <g id="Group_199" data-name="Group 199">
        <circle id="Ellipse_17" data-name="Ellipse 17" class="cls-1" cx="0.46" cy="0.46" r="0.46"/>
      </g>
    </g>
    <g id="Group_202" data-name="Group 202" transform="translate(9.309 4.541)">
      <g id="Group_201" data-name="Group 201">
        <circle id="Ellipse_18" data-name="Ellipse 18" class="cls-1" cx="0.46" cy="0.46" r="0.46"/>
      </g>
    </g>
    <g id="Group_204" data-name="Group 204" transform="translate(13.862 4.264)">
      <g id="Group_203" data-name="Group 203">
        <circle id="Ellipse_19" data-name="Ellipse 19" class="cls-1" cx="0.46" cy="0.46" r="0.46"/>
      </g>
    </g>
    <g id="Group_206" data-name="Group 206" transform="translate(14.692 8.147)">
      <g id="Group_205" data-name="Group 205">
        <circle id="Ellipse_20" data-name="Ellipse 20" class="cls-1" cx="0.46" cy="0.46" r="0.46"/>
      </g>
    </g>
    <g id="Group_208" data-name="Group 208" transform="translate(18.314 7.078)">
      <g id="Group_207" data-name="Group 207">
        <circle id="Ellipse_21" data-name="Ellipse 21" class="cls-1" cx="0.46" cy="0.46" r="0.46"/>
      </g>
    </g>
    <g id="Group_210" data-name="Group 210" transform="translate(20.879 10.849)">
      <g id="Group_209" data-name="Group 209">
        <circle id="Ellipse_22" data-name="Ellipse 22" class="cls-1" cx="0.46" cy="0.46" r="0.46"/>
      </g>
    </g>
    <g id="Group_212" data-name="Group 212" transform="translate(17.965 13.652)">
      <g id="Group_211" data-name="Group 211">
        <circle id="Ellipse_23" data-name="Ellipse 23" class="cls-1" cx="0.46" cy="0.46" r="0.46"/>
      </g>
    </g>
    <g id="Group_214" data-name="Group 214" transform="translate(20.696 16.266)">
      <g id="Group_213" data-name="Group 213">
        <circle id="Ellipse_24" data-name="Ellipse 24" class="cls-1" cx="0.46" cy="0.46" r="0.46"/>
      </g>
    </g>
  </g>
</svg>
