<svg xmlns="http://www.w3.org/2000/svg" viewBox="0 0 15 15">
  <defs>
    <style>
      .cls-1 {
        fill: #5c6670;
      }
    </style>
  </defs>
  <g id="percentage2" transform="translate(-0.01)">
    <g id="Group_1826" data-name="Group 1826" transform="translate(0.01)">
      <g id="Group_1825" data-name="Group 1825" transform="translate(0)">
        <path id="Path_981" data-name="Path 981" class="cls-1" d="M14.629,8.476A1.81,1.81,0,0,0,15.01,7.5a1.811,1.811,0,0,0-.381-.976,1.472,1.472,0,0,1-.213-.4,1.524,1.524,0,0,1,.045-.47,1.759,1.759,0,0,0-.02-1.028,1.773,1.773,0,0,0-.721-.749,1.509,1.509,0,0,1-.356-.291,1.518,1.518,0,0,1-.136-.446,1.768,1.768,0,0,0-.414-.946,1.768,1.768,0,0,0-.947-.414,1.522,1.522,0,0,1-.445-.136,1.512,1.512,0,0,1-.291-.356A1.771,1.771,0,0,0,10.382.57,1.21,1.21,0,0,0,9.909.482a3,3,0,0,0-.555.068A2.3,2.3,0,0,1,8.967.6.456.456,0,0,1,8.884.595a1.505,1.505,0,0,1-.4-.214A1.811,1.811,0,0,0,7.51,0a1.811,1.811,0,0,0-.976.381,1.5,1.5,0,0,1-.4.214A.459.459,0,0,1,6.054.6,2.316,2.316,0,0,1,5.667.549,3,3,0,0,0,5.112.482,1.211,1.211,0,0,0,4.64.57a1.774,1.774,0,0,0-.75.721,1.517,1.517,0,0,1-.291.356,1.512,1.512,0,0,1-.445.136,1.768,1.768,0,0,0-.947.414,1.768,1.768,0,0,0-.414.946,1.511,1.511,0,0,1-.136.445A1.5,1.5,0,0,1,1.3,3.88a1.773,1.773,0,0,0-.721.749,1.758,1.758,0,0,0-.02,1.028,1.528,1.528,0,0,1,.045.47,1.483,1.483,0,0,1-.213.4A1.809,1.809,0,0,0,.01,7.5a1.81,1.81,0,0,0,.381.975,1.486,1.486,0,0,1,.213.4,1.527,1.527,0,0,1-.045.47,1.759,1.759,0,0,0,.02,1.027,1.773,1.773,0,0,0,.721.749,1.5,1.5,0,0,1,.356.291,1.516,1.516,0,0,1,.136.445,1.767,1.767,0,0,0,.414.947,1.77,1.77,0,0,0,.947.414,1.508,1.508,0,0,1,.445.136,1.5,1.5,0,0,1,.292.356,1.773,1.773,0,0,0,.749.721,1.215,1.215,0,0,0,.473.087,3,3,0,0,0,.555-.067,2.312,2.312,0,0,1,.387-.052.417.417,0,0,1,.083.007,1.485,1.485,0,0,1,.4.213A1.809,1.809,0,0,0,7.51,15a1.809,1.809,0,0,0,.976-.381,1.479,1.479,0,0,1,.4-.213.415.415,0,0,1,.083-.007,2.319,2.319,0,0,1,.387.052,2.982,2.982,0,0,0,.555.067,1.214,1.214,0,0,0,.472-.087,1.773,1.773,0,0,0,.749-.721,1.509,1.509,0,0,1,.291-.356,1.513,1.513,0,0,1,.445-.136,1.769,1.769,0,0,0,.947-.415,1.766,1.766,0,0,0,.414-.947,1.519,1.519,0,0,1,.136-.445,1.5,1.5,0,0,1,.356-.292,1.772,1.772,0,0,0,.721-.749,1.76,1.76,0,0,0,.02-1.028,1.529,1.529,0,0,1-.045-.47A1.49,1.49,0,0,1,14.629,8.476ZM3.471,5.292A1.838,1.838,0,1,1,5.31,7.131,1.84,1.84,0,0,1,3.471,5.292Zm1.28,5.651a.477.477,0,0,1-.674-.674l6.212-6.212a.477.477,0,1,1,.674.674Zm4.969.6A1.838,1.838,0,1,1,11.558,9.7,1.84,1.84,0,0,1,9.72,11.541Z" transform="translate(-0.01)"/>
      </g>
    </g>
    <g id="Group_1828" data-name="Group 1828" transform="translate(8.835 8.82)">
      <g id="Group_1827" data-name="Group 1827">
        <path id="Path_982" data-name="Path 982" class="cls-1" d="M302.123,301.076a.885.885,0,1,0,.885.885A.886.886,0,0,0,302.123,301.076Z" transform="translate(-301.238 -301.076)"/>
      </g>
    </g>
    <g id="Group_1830" data-name="Group 1830" transform="translate(4.425 4.41)">
      <g id="Group_1829" data-name="Group 1829">
        <path id="Path_983" data-name="Path 983" class="cls-1" d="M151.583,150.548a.885.885,0,1,0,.885.885A.886.886,0,0,0,151.583,150.548Z" transform="translate(-150.698 -150.548)"/>
      </g>
    </g>
  </g>
</svg>
