<svg id="Group_3187" data-name="Group 3187" xmlns="http://www.w3.org/2000/svg" viewBox="0 0 16.238 16.262">
  <defs>
    <style>
      .cls-1 {
        fill: #5c6670;
      }
    </style>
  </defs>
  <g id="Group_103" data-name="Group 103" transform="translate(0 0)">
    <path id="Path_113" data-name="Path 113" class="cls-1" d="M12.829,36.533A1.6,1.6,0,0,0,11.669,36a1.654,1.654,0,0,0-1.174.529L9.41,37.611c-.089-.048-.178-.093-.264-.137-.124-.062-.24-.12-.34-.182a11.788,11.788,0,0,1-2.825-2.574,6.954,6.954,0,0,1-.927-1.462c.281-.257.542-.525.8-.783.1-.1.192-.2.288-.292a1.575,1.575,0,0,0,0-2.375L5.2,28.869c-.106-.106-.216-.216-.319-.326-.206-.213-.422-.432-.645-.638a1.625,1.625,0,0,0-1.15-.5,1.681,1.681,0,0,0-1.167.5l-.007.007L.747,29.089A2.511,2.511,0,0,0,0,30.685a6.017,6.017,0,0,0,.439,2.547,14.778,14.778,0,0,0,2.626,4.38,16.152,16.152,0,0,0,5.378,4.211,8.379,8.379,0,0,0,3.02.892c.072,0,.148.007.216.007a2.586,2.586,0,0,0,1.98-.851c0-.007.01-.01.014-.017a7.8,7.8,0,0,1,.6-.621c.148-.141.3-.288.446-.443a1.712,1.712,0,0,0,.518-1.188,1.65,1.65,0,0,0-.529-1.177Zm1.229,3.614s0,0,0,0c-.134.144-.271.275-.419.419a9.024,9.024,0,0,0-.662.686,1.655,1.655,0,0,1-1.291.546c-.051,0-.106,0-.158,0a7.444,7.444,0,0,1-2.677-.8,15.246,15.246,0,0,1-5.066-3.968,13.934,13.934,0,0,1-2.471-4.115A4.9,4.9,0,0,1,.929,30.76,1.576,1.576,0,0,1,1.4,29.741l1.17-1.17a.78.78,0,0,1,.522-.244.734.734,0,0,1,.5.24l.01.01c.209.2.408.4.618.614.106.11.216.22.326.333l.937.937a.655.655,0,0,1,0,1.064c-.1.1-.2.2-.3.3-.288.3-.563.57-.861.837-.007.007-.014.01-.017.017a.7.7,0,0,0-.178.779l.01.031a7.522,7.522,0,0,0,1.109,1.809l0,0a12.6,12.6,0,0,0,3.048,2.773,4.689,4.689,0,0,0,.422.23c.124.062.24.12.34.182.014.007.027.017.041.024a.744.744,0,0,0,.34.086.734.734,0,0,0,.522-.237l1.174-1.174a.776.776,0,0,1,.518-.257.7.7,0,0,1,.494.251l.007.007,1.891,1.891A.679.679,0,0,1,14.057,40.147Z" transform="translate(0.011 -26.459)"/>
    <path id="Path_114" data-name="Path 114" class="cls-1" d="M244.969,86.838a4.417,4.417,0,0,1,3.6,3.6.461.461,0,0,0,.456.384.614.614,0,0,0,.079-.007.464.464,0,0,0,.381-.535,5.341,5.341,0,0,0-4.352-4.352.466.466,0,0,0-.535.378A.458.458,0,0,0,244.969,86.838Z" transform="translate(-236.193 -82.97)"/>
    <path id="Path_115" data-name="Path 115" class="cls-1" d="M256.124,7.168A8.795,8.795,0,0,0,248.958,0a.463.463,0,1,0-.151.913,7.856,7.856,0,0,1,6.4,6.4.461.461,0,0,0,.457.384.614.614,0,0,0,.079-.007A.455.455,0,0,0,256.124,7.168Z" transform="translate(-239.893 0.006)"/>
  </g>
</svg>
