<svg xmlns="http://www.w3.org/2000/svg" xmlns:xlink="http://www.w3.org/1999/xlink" viewBox="0 0 85.55 86.27"><defs><style>.a,.b{fill:none;}.b{stroke:#282828;stroke-miterlimit:10;stroke-width:1.07px;}.c,.d{fill:#282828;}.d{font-size:12px;font-family:DINAlternate-Bold, DIN Alternate;font-weight:700;}.e{clip-path:url(#a);}.f{fill:url(#b);}.g{clip-path:url(#c);}.h{fill:url(#d);}</style><clipPath id="a"><path class="a" d="M45.58,34.58,41.09,49.91s-.75,2.85-2,3.53h6.24c.69,0,1.66-.49,2.65-3.85.91-3.07,4.77-16.72,4.77-16.72H48.24a2.68,2.68,0,0,0-2.66,1.71"/></clipPath><linearGradient id="b" x1="-393.49" y1="1085.9" x2="-393.33" y2="1085.9" gradientTransform="matrix(0, 126.45, 126.45, 0, -137268.44, 49790.35)" gradientUnits="userSpaceOnUse"><stop offset="0" stop-color="#e4ca9c"/><stop offset="0.03" stop-color="#e1c695"/><stop offset="0.23" stop-color="#d0ae70"/><stop offset="0.43" stop-color="#c29c53"/><stop offset="0.62" stop-color="#b98f3e"/><stop offset="0.82" stop-color="#b38731"/><stop offset="1" stop-color="#b1842d"/></linearGradient><clipPath id="c"><path class="a" d="M36.19,51c.7,2.4,2.21,2.44,2.93,2.44h6.13c-1.35,0-1.92-1.64-2.33-2.95-.22-.7-3-10-3-10a2.67,2.67,0,0,0-2.65-1.68H32.78Z"/></clipPath><linearGradient id="d" x1="-395.45" y1="1085.14" x2="-395.29" y2="1085.14" gradientTransform="matrix(0, 89.83, 89.83, 0, -97439.85, 35562.74)" gradientUnits="userSpaceOnUse"><stop offset="0" stop-color="#e4ca9c"/><stop offset="0.38" stop-color="#e4ca9c"/><stop offset="0.48" stop-color="#e0c594"/><stop offset="0.63" stop-color="#d6b67d"/><stop offset="0.82" stop-color="#c59f58"/><stop offset="1" stop-color="#b1842d"/></linearGradient></defs><title>village_lowest_price_online</title><circle class="b" cx="42.78" cy="43.13" r="41.66"/><circle class="b" cx="42.78" cy="43.13" r="22.25"/><circle class="c" cx="43.16" cy="43.32" r="16.91"/><text class="d" transform="translate(19.58 58.32) rotate(-116.27)">L</text><text class="d" transform="translate(16.74 52.76) rotate(-102.76)">O</text><text class="d" transform="translate(14.99 46.35) rotate(-86.32)">W</text><text class="d" transform="translate(15.76 36.93) rotate(-70.1)">E</text><text class="d" transform="translate(17.83 31.03) rotate(-57.07)">S</text><text class="d" transform="translate(21.35 25.6) rotate(-44.47)">T</text><text class="d" transform="translate(25.49 21.67) rotate(-35.8)"> </text><text class="d" transform="translate(27.65 20.1) rotate(-30.25)"> </text><text class="d" transform="translate(29.76 18.63) rotate(-20.63)">P</text><text class="d" transform="translate(35.99 16.22) rotate(-6.64)">R</text><text class="d" transform="translate(42.92 15.57) rotate(3.5)">I</text><text class="d" transform="translate(45.7 15.56) rotate(13.04)">C</text><text class="d" transform="translate(51.81 16.93) rotate(25.89)">E</text><text class="d" transform="matrix(0.82, 0.58, -0.58, 0.82, 57.48, 19.83)"> </text><text class="d" transform="matrix(0.76, 0.65, -0.65, 0.76, 59.68, 21.37)"> </text><text class="d" transform="matrix(0.63, 0.77, -0.77, 0.63, 61.75, 22.86)">O</text><text class="d" transform="translate(66.19 28.1) rotate(65.78)">N</text><text class="d" transform="translate(69.33 35.17) rotate(80.17)">L</text><text class="d" transform="matrix(0.01, 1, -1, 0.01, 70.29, 41.42)">I</text><text class="d" transform="translate(70.59 44.19) rotate(100.71)">N</text><text class="d" transform="translate(69.11 51.79) rotate(115.07)">E</text><path class="c" d="M25.09,66.8c-.31.93-.55,1.69-.55,1.69H22.75c-1,0-1.13.48-.34,1.06l1.44,1.06-.55,1.71c-.3,1,.1,1.24.9.66l1.44-1,1.44,1c.8.57,1.2.28.89-.66l-.55-1.71,1.45-1.06c.79-.58.64-1.06-.35-1.06H26.74l-.55-1.69C25.88,65.86,25.39,65.86,25.09,66.8Z"/><path class="c" d="M43.86,71.49c-.3.94-.55,1.7-.55,1.7H41.53c-1,0-1.14.47-.34,1.06l1.44,1.06L42.08,77c-.31.94.09,1.24.89.66l1.44-1.05,1.45,1c.79.58,1.19.29.89-.66s-.55-1.7-.55-1.7l1.44-1.06c.8-.59.64-1.06-.34-1.06H45.52L45,71.49C44.66,70.56,44.17,70.56,43.86,71.49Z"/><path class="c" d="M62.35,65.9c-.31.94-.55,1.7-.55,1.7H60c-1,0-1.13.47-.34,1.06l1.44,1.06-.55,1.71c-.3.94.1,1.23.9.65l1.44-1,1.44,1c.8.58,1.2.28.89-.66s-.55-1.7-.55-1.7l1.45-1.06c.79-.59.64-1.06-.34-1.06H64l-.55-1.7C63.15,65,62.65,65,62.35,65.9Z"/><g class="e"><rect class="f" x="39.12" y="32.87" width="13.65" height="20.57"/></g><g class="g"><rect class="h" x="32.78" y="38.83" width="12.47" height="14.61"/></g></svg>