<?xml version="1.0" encoding="utf-8"?>
<!-- Generator: Adobe Illustrator 22.0.1, SVG Export Plug-In . SVG Version: 6.00 Build 0)  -->
<svg version="1.1" id="Layer_1" xmlns="http://www.w3.org/2000/svg" xmlns:xlink="http://www.w3.org/1999/xlink" x="0px" y="0px"
	 viewBox="0 0 330.5 126.3" style="enable-background:new 0 0 330.5 126.3;" xml:space="preserve">
<style type="text/css">
	.st0{clip-path:url(#SVGID_1_);fill:url(#SVGID_2_);}
	.st1{clip-path:url(#SVGID_3_);fill:url(#SVGID_4_);}
	.st2{fill:#7C1442;}
</style>
<g>
	<g>
		<defs>
			<path id="SVGID_7_" d="M93.8,0.1C89.9,0.4,81.5,2,78.9,10.6l-27.6,94.3c0,0-4.6,17.6-12.1,21.7c0,0,36.7,0,38.4,0
				c4.2,0,10.2-3,16.3-23.7C99.2,84.8,121.3,6.8,123,0.5V0.1H93.8z"/>
		</defs>
		<clipPath id="SVGID_1_">
			<use xlink:href="#SVGID_7_"  style="overflow:visible;"/>
		</clipPath>
		
			<linearGradient id="SVGID_2_" gradientUnits="userSpaceOnUse" x1="-428.6661" y1="485.9652" x2="-427.6661" y2="485.9652" gradientTransform="matrix(0 126.506 -126.506 0 61558.5938 54228.9766)">
			<stop  offset="0" style="stop-color:#E2C99C"/>
			<stop  offset="2.529353e-02" style="stop-color:#E0C698"/>
			<stop  offset="0.3379" style="stop-color:#CCAA6A"/>
			<stop  offset="0.6157" style="stop-color:#BD9549"/>
			<stop  offset="0.8459" style="stop-color:#B48934"/>
			<stop  offset="1" style="stop-color:#B1842D"/>
		</linearGradient>
		<rect x="39.1" y="0.1" class="st0" width="83.9" height="126.5"/>
	</g>
	<g>
		<defs>
			<path id="SVGID_10_" d="M0.1,36.7l21,74.9c3.5,12,10.3,14.4,15.1,14.9h39.2c-7.3-1.1-10.5-10.4-12.9-18
				c-1.3-4.3-18.2-61.4-18.2-61.4c-2.9-9.4-13.2-10.3-16.3-10.3C25,36.7,0.1,36.7,0.1,36.7z"/>
		</defs>
		<clipPath id="SVGID_3_">
			<use xlink:href="#SVGID_10_"  style="overflow:visible;"/>
		</clipPath>
		
			<linearGradient id="SVGID_4_" gradientUnits="userSpaceOnUse" x1="-428.5513" y1="486.6292" x2="-427.5513" y2="486.6292" gradientTransform="matrix(0 89.9072 -89.9072 0 43789.1836 38566.4453)">
			<stop  offset="0" style="stop-color:#E2C99C"/>
			<stop  offset="0.3846" style="stop-color:#E2C99C"/>
			<stop  offset="0.48" style="stop-color:#DEC494"/>
			<stop  offset="0.6306" style="stop-color:#D4B67D"/>
			<stop  offset="0.8165" style="stop-color:#C49F58"/>
			<stop  offset="1" style="stop-color:#B1842D"/>
		</linearGradient>
		<rect x="0.1" y="36.7" class="st1" width="75.2" height="89.8"/>
	</g>
	<path class="st2" d="M165.5,94.3h-0.2h-4.1h-0.2l-0.1-0.2c-3.1-7.4-8.8-19.9-15.1-33.6l-0.2-0.5h0.5h6.4h0.2l0.1,0.2
		c2.9,6.5,8.3,19.4,11.1,26.9c2.8-7.3,8.2-20.7,10.8-26.9l0.1-0.2h0.2h5.3h0.5l-0.2,0.5c-3.7,7.8-9.7,21.3-14,31.2l-1.1,2.4
		L165.5,94.3z"/>
	<path class="st2" d="M191.8,93.9h-0.3h-5.9h-0.3l0-0.3c0.3-6.3,0.3-10.2,0.3-16.6c0-6.8,0-9.7-0.3-16.6l0-0.3h0.3h5.9h0.3l0,0.3
		c-0.3,6.8-0.3,9.6-0.3,16.6c0,6.4,0,10.3,0.3,16.6L191.8,93.9z M188.5,52.8c-2.9,0-4.3-2-4.3-4c0-1.8,1.3-3.8,4.3-3.8
		c2.9,0,4.2,1.9,4.2,3.8C192.7,50.8,191.4,52.8,188.5,52.8"/>
	<path class="st2" d="M206.6,93.9h-0.3h-5.9H200l0-0.3c0.3-9.6,0.3-13.9,0.3-23.8c0-10.5,0-15.2-0.3-25.5l0-0.3h0.3h5.9h0.3l0,0.3
		c-0.3,10.3-0.3,14.9-0.3,25.5c0,9.9,0,14.2,0.3,23.8L206.6,93.9z"/>
	<path class="st2" d="M221.1,93.9h-0.3h-6h-0.3l0-0.3c0.3-9.6,0.3-13.9,0.3-23.8c0-10.5,0-15.2-0.3-25.5l0-0.3h0.3h6h0.3l0,0.3
		c-0.3,10.3-0.3,14.9-0.3,25.5c0,9.9,0,14.2,0.3,23.8L221.1,93.9z"/>
	<path class="st2" d="M240.2,94.6c-6.7,0-13.5-5.9-13.5-17c0-10.7,7.9-18.4,18.7-18.4c2.8,0,5.1,0.4,7.8,1.2l4.8-1.5l0.5-0.1l0,0.5
		c-0.5,6.6-0.5,9.9-0.5,17c0,7.1,0,10,0.3,17.3l0,0.3h-0.3h-5.1h-0.3l0-0.3l-0.6-4.6C249.2,92.6,245.1,94.6,240.2,94.6 M244.9,63.9
		c-5.9,0-11.9,4.4-11.9,12.8c0,8.1,3.5,12.9,9.5,12.9c3.7,0,6.7-1.9,9.1-5.7c0.1-2.2,0.2-5.6,0.2-8.1c0-3.9-0.1-8.7-0.2-10.5
		C249.6,64.2,247.6,63.9,244.9,63.9"/>
	<path class="st2" d="M276.8,108.9c-5,0-8.8-0.6-12.8-2l-0.3-0.1l0.1-0.3l1.4-4.8l0.1-0.4l0.3,0.2c3.2,1.4,7,2.2,11.1,2.2
		c7.6,0,12.2-3.9,12.2-11.7c0-1.7,0-2.7-0.2-3.8c-2.8,3.7-7,5.8-12,5.8c-6.7,0-13.5-5.1-13.5-16.4c0-10.7,7.9-18.4,18.7-18.4
		c2.8,0,5.1,0.3,7.8,1.2l4.8-1.5l0.5-0.2l0,0.5c-0.5,5.4-0.5,10.9-0.5,15.7c0,2.7,0.1,5.1,0.2,7.4c0.1,2.3,0.2,4.4,0.2,6.7
		C294.9,102.6,288.7,108.9,276.8,108.9 M281.6,63.9c-5.9,0-11.9,4.4-11.9,12.8c0,8.2,3,12,9.5,12c3.8,0,6.7-1.8,9.1-5.7
		c0.1-2,0.2-4.5,0.2-7.3c0-3.9-0.1-8.7-0.2-10.5C286.3,64.2,284.3,63.9,281.6,63.9"/>
	<path class="st2" d="M317.2,94.6c-10.4,0-17.4-7.4-17.4-18.3c0-10.4,6.3-17.1,16-17.1c8.9,0,14.5,5.9,14.5,15.3
		c0,0.9,0,1.8-0.1,2.8l0,0.3h-0.3H306c0.6,7.6,5,11.8,12.5,11.8c3.2,0,7.1-1.4,9.4-3.4l0.3-0.3l0.2,0.4l2,3.9l0.1,0.2l-0.2,0.2
		C326.8,93.3,322.6,94.6,317.2,94.6 M305.9,73.3h18.3c-0.6-6.6-3.3-9.4-9-9.4C310,63.9,306.5,67.5,305.9,73.3"/>
</g>
</svg>
